<?xml version="1.0" standalone="yes"?>
<svg xmlns="http://www.w3.org/2000/svg" width="70" height="42">
<path style="fill:#4463ac; stroke:none;" d="M0 0L0 19L17 19L17 16L19 16L19 19C22.8838 19 29.0184 20.5809 30 16L33 16L33 19L70 19L70 0L0 0z"/>
<path style="fill:#979a60; stroke:none;" d="M23 14L23 17L26 17L26 16C24.0399 15.3466 23.446 15 26 15L23 14z"/>
<path style="fill:#eed632; stroke:none;" d="M24.6667 15.3333L25.3333 15.6667L24.6667 15.3333z"/>
<path style="fill:#979a60; stroke:none;" d="M16 17L16 18L20 18L16 17M30 16L31 17L30 16z"/>
<path style="fill:#eed632; stroke:none;" d="M31 16L30 18L32 18L31 16z"/>
<path style="fill:#979a60; stroke:none;" d="M32 16L30 18L30 19C32.2508 18.5268 33.1178 18.1397 32 16z"/>
<path style="fill:#eed632; stroke:none;" d="M17.6667 17.3333L18.3333 17.6667L17.6667 17.3333z"/>
<path style="fill:#f8f5f5; stroke:none;" d="M0 19L0 24L13 22L14 22L15 22C18.7126 26.2486 29.228 23.8908 34.3349 23.2593C45.4008 21.8908 58.6445 24 70 24L70 19L0 19z"/>
<path style="fill:#eed632; stroke:none;" d="M13 22L13 24L15 24L15 22L13 22M34 22L34 24L37 24L37 22L34 22z"/>
<path style="fill:#ee3136; stroke:none;" d="M0 24L0 29L70 29L70 24L0 24z"/>
<path style="fill:#979a60; stroke:none;" d="M35 28L36 29L35 28z"/>
<path style="fill:#f8f5f5; stroke:none;" d="M0 29L0 33L70 33L70 29C58.6445 29 45.4008 31.1092 34.3349 29.7407C29.228 29.1092 18.7126 26.7514 15 31L14 31L0 29z"/>
<path style="fill:#eed632; stroke:none;" d="M13 29L13 31L15 31L15 29L13 29M34 29L34 31L37 31L37 29L34 29z"/>
<path style="fill:#979a60; stroke:none;" d="M0 33L0 34L16 36L20 36C20 32.4968 27.0394 34 30 34L30 37L31 37L30 35L32 37L33 37L32 34L70 34L48 33L0 33z"/>
<path style="fill:#4463ac; stroke:none;" d="M0 34L0 42L70 42L70 34L32 34L33 37L30 34L19 34L19 37L17 37L17 34L0 34z"/>
<path style="fill:#eed632; stroke:none;" d="M17 35L17 37L19 37L19 35L17 35M30 35L32 37L32 35L30 35z"/>
<path style="fill:#979a60; stroke:none;" d="M24 36L23 39L24 39L24 36z"/>
<path style="fill:#eed632; stroke:none;" d="M24 37L24 39L26 37L24 37z"/>
<path style="fill:#979a60; stroke:none;" d="M26 37L27 38L26 37M25.3333 38.6667L25.6667 39.3333L25.3333 38.6667z"/>
</svg>
