<?xml version="1.0" standalone="yes"?>
<svg xmlns="http://www.w3.org/2000/svg" width="70" height="42">
<path style="fill:#bf2633; stroke:none;" d="M0 0L0 42L43 29.7199L69 21L43 12.2801L0 0z"/>
<path style="fill:#22a657; stroke:none;" d="M5 0L5 1L70 20L70 0L5 0z"/>
<path style="fill:#ac96b0; stroke:none;" d="M14 3L15 4L14 3M17 4L18 5L17 4M27 7L28 8L27 7M30 8L31 9L30 8M23 11L24 12L23 11M40 11L41 12L40 11z"/>
<path style="fill:#e1a776; stroke:none;" d="M13 13C12.2957 16.414 10.5839 20.5245 11.8974 23.956C14.5721 30.9438 24.9348 31.0489 28.5517 24.8673C30.5593 21.4362 28.9835 17.5013 28 14L26 15C23.0784 10.5014 17.5962 12.565 13 13z"/>
<path style="fill:#ac96b0; stroke:none;" d="M20 12L21 13L20 12M43 12L44 13L43 12z"/>
<path style="fill:#a6cde9; stroke:none;" d="M16 13L17 14L16 13z"/>
<path style="fill:#bf2633; stroke:none;" d="M19 13L20 14L19 13M20 28L17 25L19 22L17 18L20 17L19 14C11.4533 16.8871 13.7897 25.0068 20 28M21 14L23 22L20 24L23 23L21 26C28.5168 27.6167 27.5506 15.9446 21 14z"/>
<path style="fill:#ac96b0; stroke:none;" d="M26 14L27 15L26 14M12 15L13 16L12 15M28 15L29 16L28 15M53 15L54 16L53 15M56 16L57 17L56 16M22 18L23 19L22 18M11 19L12 20L11 19M20.6667 19.3333L21.3333 19.6667L20.6667 19.3333M29 19L30 20L29 19M66 19L67 20L66 19M69.3333 20.6667L69.6667 21.3333L69.3333 20.6667M26 21L27 22L26 21M66.6667 22.3333L67.3333 22.6667L66.6667 22.3333z"/>
<path style="fill:#a6cde9; stroke:none;" d="M7 41L7 42L70 42L70 22L7 41z"/>
<path style="fill:#ac96b0; stroke:none;" d="M63.6667 23.3333L64.3333 23.6667L63.6667 23.3333M11 24L12 25L11 24M25 24L26 25L25 24z"/>
<path style="fill:#a6cde9; stroke:none;" d="M27 24L28 25L27 24z"/>
<path style="fill:#ac96b0; stroke:none;" d="M60 24L61 25L60 24M12 25L13 26L12 25M56.6667 25.3333L57.3333 25.6667L56.6667 25.3333z"/>
<path style="fill:#a6cde9; stroke:none;" d="M25 26L26 27L25 26z"/>
<path style="fill:#ac96b0; stroke:none;" d="M27 26L28 27L27 26M53.6667 26.3333L54.3333 26.6667L53.6667 26.3333M21 27L22 28L21 27M50.6667 27.3333L51.3333 27.6667L50.6667 27.3333M47 28L48 29L47 28M18 29L19 30L18 29M43.6667 29.3333L44.3333 29.6667L43.6667 29.3333M40.6667 30.3333L41.3333 30.6667L40.6667 30.3333M37.6667 31.3333L38.3333 31.6667L37.6667 31.3333M34 32L35 33L34 32M30.6667 33.3333L31.3333 33.6667L30.6667 33.3333M27.6667 34.3333L28.3333 34.6667L27.6667 34.3333M24.6667 35.3333L25.3333 35.6667L24.6667 35.3333M21 36L22 37L21 36M17.6667 37.3333L18.3333 37.6667L17.6667 37.3333M14.6667 38.3333L15.3333 38.6667L14.6667 38.3333M11.6667 39.3333L12.3333 39.6667L11.6667 39.3333M7.66667 40.3333L8.33333 40.6667L7.66667 40.3333M5.66667 41.3333L6.33333 41.6667L5.66667 41.3333z"/>
</svg>
