<?xml version="1.0" standalone="yes"?>
<svg xmlns="http://www.w3.org/2000/svg" width="70" height="42">
<path style="fill:#ec1f26; stroke:none;" d="M0 0L0 25L26 25L26 0L0 0z"/>
<path style="fill:#0da74f; stroke:none;" d="M26 0L26 8L70 8L70 0L26 0z"/>
<path style="fill:#f37851; stroke:none;" d="M11 7L12 7C12.6534 5.03993 13 4.446 13 7L14 7L13 4L11 7z"/>
<path style="fill:#fef3f3; stroke:none;" d="M12 5C10.6157 8.76759 8.95603 9.69527 5 10L5 11L8 19L17 19L20 11L20 10L12 5z"/>
<path style="fill:#f1cc46; stroke:none;" d="M11 7L12 8L11 7M13 7L14 8L13 7z"/>
<path style="fill:#f37851; stroke:none;" d="M10 8L4 11L10 8z"/>
<path style="fill:#f1cc46; stroke:none;" d="M26 8L26 17L70 16L70 8L26 8z"/>
<path style="fill:#f37851; stroke:none;" d="M14 9L14 10L21 11L14 9M5 11L6 12L5 11M19 11L20 12L19 11z"/>
<path style="fill:#f1cc46; stroke:none;" d="M7 12L8 13L7 12M17 12L18 13L17 12z"/>
<path style="fill:#f37851; stroke:none;" d="M8 13L9 14L8 13M16 13L17 14L16 13M8 15L9 16L8 15M16 15L17 16L16 15z"/>
<path style="fill:#f1cc46; stroke:none;" d="M8 16L9 17L8 16M12 16L13 17L12 16M16 16L17 17L16 16z"/>
<path style="fill:#0da74f; stroke:none;" d="M26 25L70 25L70 16L39 16L27.6034 17.0278L26 25z"/>
<path style="fill:#f1cc46; stroke:none;" d="M10 17L11 18L10 17z"/>
<path style="fill:#f37851; stroke:none;" d="M11 17L12 18L11 17M13 17L14 18L13 17z"/>
<path style="fill:#f1cc46; stroke:none;" d="M14 17L15 18L14 17z"/>
<path style="fill:#f37851; stroke:none;" d="M7 18L7 20L9 20L7 18M9 18L10 19L9 18M15 18L16 19L15 18M17 18L16 20L18 20L17 18M0 25L0 26L26 26L0 25z"/>
<path style="fill:#f1cc46; stroke:none;" d="M0 26L0 34L70 34L70 25L0 26z"/>
<path style="fill:#0da74f; stroke:none;" d="M0 34L0 42L70 42L70 34L0 34z"/>
</svg>
