<?xml version="1.0" standalone="yes"?>
<svg xmlns="http://www.w3.org/2000/svg" width="70" height="42">
<path style="fill:#f6f1f0; stroke:none;" d="M0 0L0 21C6.79854 20.976 9.0967 19.9592 7 13L10 14L10 12L17 21L20 11L17 13C15.0877 10.0792 13.3039 10.3096 10 11L8 7L12 8L29 3L27 11L29 14L27 18L46 2L46 6L55 4L52 7L52 8L54 10C50.5948 11.7189 49.4511 13.1845 50 17L46 18L46 19L56 20L56 19C49.17 15.1586 59.6612 9.309 63 6L60 14L60 21L70 21L70 0L0 0z"/>
<path style="fill:#d16161; stroke:none;" d="M45 2L49 7L49 6L46 6L45 2M25 3L26 4L25 3z"/>
<path style="fill:#e00705; stroke:none;" d="M13 6L13 7L21 8L21 9L9 8L9 9L17 12L21 10L18 23L17 24C14.1314 21.6579 11.6409 19.7805 13 16L10 13L8 14L7 24L9 22L10 22C12.6844 26.0412 14.8805 29.709 20 28C18.7292 32.737 16.8772 34.074 12 34L12 38L23 37L20 36L25 30L25 32L33 28L37 34L29 33L29 34L31 34L31 35L28 36L39 38L38 35L46 32L46 31L41 26C43.9442 26.6733 48.2178 27.1174 50.6628 28.9869C55.5378 32.7144 48.7412 33.6565 46 33L46 36L48 36L47 38L57 38L57 27L53 25L53 24C58.5807 21.784 59.9312 18.8284 60 13L63 14L62 7L61 7L57 11L59 14L52 15L52 17L57 18L57 20L45 19L45 18L49 17L53 10L53 5C49.2768 5.86812 47.0784 6.54266 45 3C38.4773 6.63138 32.4406 9.95647 32 18L27 18L29 10L26 7L26 6L28 3L13 6z"/>
<path style="fill:#d16161; stroke:none;" d="M28 3L29 4L28 3M43 3L44 4L43 3M18 4L19 5L18 4M42 4L43 5L42 4M52 4L53 6L54 6L55 4L52 4M14 5L14 6L18 6L14 5M40 5L41 6L40 5M50 5L51 6L50 5M12 6L12 9L13 9L12 6M26 6L27 7L26 6M39 6L40 7L39 6M52 6L53 7L52 6M62 6L62 13L63 13L62 6M8.66667 7.33333L9.33333 7.66667L8.66667 7.33333z"/>
<path style="fill:#f6f1f0; stroke:none;" d="M13 7L16 9L13 7z"/>
<path style="fill:#d16161; stroke:none;" d="M15 7L16 8L15 7M16 8L16 9L21 9L16 8M27 7L28 8L27 7M37 7L38 8L37 7M28 8L29 9L28 8M36 8L37 9L36 8M52 8L53 9L52 8M9 9L10 10L9 9M27 9L28 10L27 9M53 9L54 10L53 9M59 9L60 10L59 9M10.6667 10.3333L11.3333 10.6667L10.6667 10.3333M16 10L17 11L16 10M20 10L20 13L21 13L20 10M33 10L34 11L33 10M51 10L52 11L51 10M58 10L59 11L58 10M32.3333 11.6667L32.6667 12.3333L32.3333 11.6667M50 11L51 12L50 11M10 12L11 13L10 12M17 12L18 13L17 12M27 12L27 14L29 14L27 12M49 12L50 13L49 12M54 13L54 14L59 14L54 13M7 13L7 16L8 16L9 13L7 13M11 13L11 15L13 15L13 13L11 13z"/>
<path style="fill:#f6f1f0; stroke:none;" d="M57 13L58 14L57 13z"/>
<path style="fill:#d16161; stroke:none;" d="M60.6667 13.3333L61.3333 13.6667L60.6667 13.3333M9 14L10 15L9 14M19 14L20 15L19 14M26 14L27 15L26 14M52 14L53 15L52 14M27.3333 15.6667L27.6667 16.3333L27.3333 15.6667M54 16L54 17L57 17L54 16M8 16L9 17L8 16M12 16L13 17L12 16M18 16L19 17L18 16M49 16L50 17L49 16z"/>
<path style="fill:#f6f1f0; stroke:none;" d="M55 16L56 17L55 16z"/>
<path style="fill:#d16161; stroke:none;" d="M11 17L12 18L11 17M30.6667 17.3333L31.3333 17.6667L30.6667 17.3333M46.6667 17.3333L47.3333 17.6667L46.6667 17.3333M52 17L53 18L52 17M60 17L61 18L60 17M17.3333 18.6667L17.6667 19.3333L17.3333 18.6667M45 18L46 19L45 18M53 18L53 19L57 20L53 18M46 19L46 20L51 20L46 19M8 20L9 21L8 20M12 20L13 21L12 20M59 20L60 21L59 20z"/>
<path style="fill:#1f8a1f; stroke:none;" d="M0 21L0 22L7 22L0 21z"/>
<path style="fill:#0b7101; stroke:none;" d="M7 21L8 22L7 21M13 21L13 22L18 23L18 22L13 21z"/>
<path style="fill:#1f8a1f; stroke:none;" d="M14 21L14 22L17 22L14 21z"/>
<path style="fill:#0b7101; stroke:none;" d="M53 24L53 25L57 27L57 38L47 38L46 36L46 33C48.9588 34.1715 56.1774 33.2196 51.392 28.9869C49.1966 27.0451 44.7778 26.6353 42 26L41 27L41 29L46 31L39 38L31 35L31 34L29 34L29 33L37 34L33 28L25 32L25 30C21.718 32.127 19.0185 34.3109 23 37L12 38L12 34C17.2152 34.6904 19.1542 33.1959 20 28L15 30L10 22L9 22L8 24L0 22L0 42L70 42L70 22L53 24z"/>
<path style="fill:#1f8a1f; stroke:none;" d="M59 21L59 22L70 22L59 21z"/>
<path style="fill:#d16161; stroke:none;" d="M41 26L42 27L41 26M57 28L58 29L57 28M15 29L16 30L15 29M42 32L43 33L42 32M38 35L39 36L38 35z"/>
</svg>
