<?xml version="1.0" standalone="yes"?>
<svg xmlns="http://www.w3.org/2000/svg" width="70" height="42">
<path style="fill:#272322; stroke:none;" d="M0 0L12 16L25 14L23 10L27 10L25 6L30 8L29 3L34 6L34 2L36 2L36 6L41 3L40 8L45 6L43 10L47 10L45 14L58 16L70 0L0 0z"/>
<path style="fill:#ea1e26; stroke:none;" d="M0 1L0 42L34 42C24.7848 28.523 12.7032 11.2506 0 1M69 1L36 42L70 42C70 30.3043 73.5108 11.7499 69 1z"/>
<path style="fill:#e1ba12; stroke:none;" d="M34 2L34 6L29 3L30 8L25 6L27 10L23 10L23 14L23 15L47 15L47 14L45 13L45 12L47 12L47 10L43 10L45 6L40 8L41 3L36 6L36 2L34 2z"/>
<path style="fill:#0488cd; stroke:none;" d="M13 15C19.6757 29.9764 50.3243 29.9764 57 15L13 15z"/>
<path style="fill:#272322; stroke:none;" d="M16 20L17 21L16 20M53 20L54 21L53 20z"/>
<path style="fill:#f5f4f7; stroke:none;" d="M21 25C23.2409 28.8954 29.9433 40.7932 35 40.7932C40.0567 40.7932 46.7591 28.8954 49 25L21 25z"/>
<path style="fill:#e1ba12; stroke:none;" d="M21 26L22 27L21 26M48 26L49 27L48 26M22 27L23 28L22 27M47 27L48 28L47 27M25 31L26 32L25 31M44 31L45 32L44 31M26 32L27 33L26 32M43 32L44 33L43 32M29 36L30 37L29 36M40 36L41 37L40 36M30 37L31 38L30 37M39 37L40 38L39 37M31 38L32 39L31 38M38 38L39 39L38 38z"/>
</svg>
