<?xml version="1.0" standalone="yes"?>
<svg xmlns="http://www.w3.org/2000/svg" width="70" height="42">
<path style="fill:#e72525; stroke:none;" d="M0 0L0 42L70 42L70 0L0 0z"/>
<path style="fill:#f2c427; stroke:none;" d="M18 1L18 3L20 3L20 1L18 1M34 1L34 3L36 3L36 1L34 1M49 1L52 3L49 1z"/>
<path style="fill:#5bab42; stroke:none;" d="M9 5L10 6L9 5z"/>
<path style="fill:#a0bc36; stroke:none;" d="M10 5L11 6L10 5z"/>
<path style="fill:#f2c427; stroke:none;" d="M11 5L11 6C18.0776 10.6832 28.0446 19.4407 37 18.2562C44.5756 17.2542 52.5829 9.94165 59 6C46.5857 0.790733 24.5264 5 11 5z"/>
<path style="fill:#a0bc36; stroke:none;" d="M59 5L60 6L59 5z"/>
<path style="fill:#5bab42; stroke:none;" d="M60 5L61 6L60 5z"/>
<path style="fill:#04a751; stroke:none;" d="M9 6L9 36L32 23L32 19L9 6z"/>
<path style="fill:#5bab42; stroke:none;" d="M11 6L12 7L11 6M58 6L59 7L58 6z"/>
<path style="fill:#04a751; stroke:none;" d="M38 19L38 23L61 36L61 6L38 19z"/>
<path style="fill:#5bab42; stroke:none;" d="M12 7L13 8L12 7z"/>
<path style="fill:#a0bc36; stroke:none;" d="M13 7L14 8L13 7M56 7L57 8L56 7z"/>
<path style="fill:#5bab42; stroke:none;" d="M14 8L15 9L14 8z"/>
<path style="fill:#a0bc36; stroke:none;" d="M54 8L55 9L54 8z"/>
<path style="fill:#5bab42; stroke:none;" d="M55 8L56 9L55 8z"/>
<path style="fill:#a0bc36; stroke:none;" d="M16 9L17 10L16 9M53 9L54 10L53 9z"/>
<path style="fill:#5bab42; stroke:none;" d="M17 10L18 11L17 10z"/>
<path style="fill:#a0bc36; stroke:none;" d="M18 10L19 11L18 10M51 10L52 11L51 10z"/>
<path style="fill:#5bab42; stroke:none;" d="M52 10L53 11L52 10M19 11L20 12L19 11M50 11L51 12L50 11z"/>
<path style="fill:#a0bc36; stroke:none;" d="M21 12L22 13L21 12M48 12L49 13L48 12z"/>
<path style="fill:#5bab42; stroke:none;" d="M22 13L23 14L22 13z"/>
<path style="fill:#a0bc36; stroke:none;" d="M23 13L24 14L23 13M46 13L47 14L46 13z"/>
<path style="fill:#5bab42; stroke:none;" d="M47 13L48 14L47 13z"/>
<path style="fill:#a0bc36; stroke:none;" d="M24 14L25 15L24 14z"/>
<path style="fill:#5bab42; stroke:none;" d="M45 14L46 15L45 14M25 15L26 16L25 15z"/>
<path style="fill:#a0bc36; stroke:none;" d="M26 15L27 16L26 15M43 15L44 16L43 15z"/>
<path style="fill:#5bab42; stroke:none;" d="M44 15L45 16L44 15M27 16L28 17L27 16M42 16L43 17L42 16z"/>
<path style="fill:#a0bc36; stroke:none;" d="M12.6667 17.3333L13.3333 17.6667L12.6667 17.3333z"/>
<path style="fill:#5bab42; stroke:none;" d="M14 17L15 18L14 17z"/>
<path style="fill:#a0bc36; stroke:none;" d="M29 17L30 18L29 17M40 17L41 18L40 17z"/>
<path style="fill:#f2c427; stroke:none;" d="M12 18L13 22L16 19L12 18z"/>
<path style="fill:#a0bc36; stroke:none;" d="M15 18L16 19L15 18z"/>
<path style="fill:#5bab42; stroke:none;" d="M30 18L31 19L30 18z"/>
<path style="fill:#a0bc36; stroke:none;" d="M31 18L32 19L31 18z"/>
<path style="fill:#e72525; stroke:none;" d="M33.6034 19.0818C31.1317 20.8717 33.9181 24.7131 36.3966 22.9182C38.8683 21.1283 36.0819 17.2869 33.6034 19.0818z"/>
<path style="fill:#a0bc36; stroke:none;" d="M38 18L39 19L38 18z"/>
<path style="fill:#5bab42; stroke:none;" d="M39 18L40 19L39 18M16 19L13 22L13 23L16 19M11 20L12 21L11 20z"/>
<path style="fill:#e72525; stroke:none;" d="M14.3333 20.6667L14.6667 21.3333L14.3333 20.6667z"/>
<path style="fill:#a0bc36; stroke:none;" d="M15 20L16 21L15 20z"/>
<path style="fill:#5bab42; stroke:none;" d="M31.3333 20.6667L31.6667 21.3333L31.3333 20.6667z"/>
<path style="fill:#f2c427; stroke:none;" d="M33 20L33 21L37 21L33 20z"/>
<path style="fill:#5bab42; stroke:none;" d="M38.3333 20.6667L38.6667 21.3333L38.3333 20.6667z"/>
<path style="fill:#a0bc36; stroke:none;" d="M12 21L13 22L12 21z"/>
<path style="fill:#5bab42; stroke:none;" d="M30 23L31 24L30 23z"/>
<path style="fill:#a0bc36; stroke:none;" d="M31 23L32 24L31 23z"/>
<path style="fill:#f2c427; stroke:none;" d="M11 36L11 37L59 37C42.5342 19.1642 28.7028 24.2861 11 36z"/>
<path style="fill:#a0bc36; stroke:none;" d="M38 23L39 24L38 23z"/>
<path style="fill:#5bab42; stroke:none;" d="M39 23L40 24L39 23z"/>
<path style="fill:#a0bc36; stroke:none;" d="M29 24L30 25L29 24M40 24L41 25L40 24z"/>
<path style="fill:#5bab42; stroke:none;" d="M27 25L28 26L27 25M42 25L43 26L42 25M25 26L26 27L25 26z"/>
<path style="fill:#a0bc36; stroke:none;" d="M26 26L27 27L26 26M43 26L44 27L43 26z"/>
<path style="fill:#5bab42; stroke:none;" d="M44 26L45 27L44 26z"/>
<path style="fill:#a0bc36; stroke:none;" d="M24 27L25 28L24 27z"/>
<path style="fill:#5bab42; stroke:none;" d="M45 27L46 28L45 27M22 28L23 29L22 28z"/>
<path style="fill:#a0bc36; stroke:none;" d="M23 28L24 29L23 28M46 28L47 29L46 28z"/>
<path style="fill:#5bab42; stroke:none;" d="M47 28L48 29L47 28z"/>
<path style="fill:#a0bc36; stroke:none;" d="M21 29L22 30L21 29M48 29L49 30L48 29z"/>
<path style="fill:#5bab42; stroke:none;" d="M19 30L20 31L19 30M50 30L51 31L50 30M17 31L18 32L17 31z"/>
<path style="fill:#a0bc36; stroke:none;" d="M18 31L19 32L18 31M51 31L52 32L51 31z"/>
<path style="fill:#5bab42; stroke:none;" d="M52 31L53 32L52 31z"/>
<path style="fill:#a0bc36; stroke:none;" d="M16 32L17 33L16 32M53 32L54 33L53 32z"/>
<path style="fill:#5bab42; stroke:none;" d="M14 33L15 34L14 33M55 33L56 34L55 33M12 34L13 35L12 34z"/>
<path style="fill:#a0bc36; stroke:none;" d="M13 34L14 35L13 34M56 34L57 35L56 34z"/>
<path style="fill:#5bab42; stroke:none;" d="M57 34L58 35L57 34z"/>
<path style="fill:#a0bc36; stroke:none;" d="M11 35L12 36L11 35z"/>
<path style="fill:#5bab42; stroke:none;" d="M58 35L59 36L58 35M9 36L10 37L9 36z"/>
<path style="fill:#a0bc36; stroke:none;" d="M10 36L11 37L10 36M59 36L60 37L59 36z"/>
<path style="fill:#5bab42; stroke:none;" d="M60 36L61 37L60 36z"/>
<path style="fill:#f2c427; stroke:none;" d="M18 39L18 41L20 41L20 39L18 39M34 39L34 41L36 41L36 39L34 39M50 39L50 41L52 41L52 39L50 39z"/>
</svg>
