<?xml version="1.0" standalone="yes"?>
<svg xmlns="http://www.w3.org/2000/svg" width="70" height="42">
<path style="fill:#db3f3d; stroke:none;" d="M0 0L0 1L8 6L0 0z"/>
<path style="fill:#e0ccd5; stroke:none;" d="M2 0L2 1L9 5L9 6L0 6L0 7C6.10755 7 13.394 8.77806 14 1L13 1L13 5L2 0z"/>
<path style="fill:#aba750; stroke:none;" d="M5 0L6 1L5 0z"/>
<path style="fill:#0a5caa; stroke:none;" d="M6 0L6 1L12 4L12 0L6 0z"/>
<path style="fill:#5d7356; stroke:none;" d="M12 0L12 4L13 4L12 0z"/>
<path style="fill:#aba750; stroke:none;" d="M13 0L14 1L13 0z"/>
<path style="fill:#db3f3d; stroke:none;" d="M14 0L14 7L0 7L0 12L14 12L14 20L19 20L19 12L33 12L33 7L19 7L19 0L14 0z"/>
<path style="fill:#aba750; stroke:none;" d="M19 0L20 1L19 0z"/>
<path style="fill:#0a5caa; stroke:none;" d="M20 0L20 4L26 1L20 0z"/>
<path style="fill:#5d7356; stroke:none;" d="M26 0L27 1L26 0z"/>
<path style="fill:#e0ccd5; stroke:none;" d="M27 0L26 2L27 0z"/>
<path style="fill:#db3f3d; stroke:none;" d="M22 6L31 1C27.2117 0.19199 23.9828 2.88802 22 6z"/>
<path style="fill:#e0ccd5; stroke:none;" d="M22 6L20 5L20 1L19 1L19 7L33 7L33 6L27 6L27 5L33 0L22 6z"/>
<path style="fill:#5d7356; stroke:none;" d="M33 0L34 1L33 0z"/>
<path style="fill:#0a5caa; stroke:none;" d="M29 4L29 5C33.292 6.30291 33.8611 8.73498 34 13L28 13L28 14L34 20L20 14L20 20L12 20L12 14L0 20L0 42L70 42L70 0C57.3658 0 39.7484 -3.37911 29 4z"/>
<path style="fill:#e0ccd5; stroke:none;" d="M0 1L1 2L0 1z"/>
<path style="fill:#5d7356; stroke:none;" d="M7 1L8 2L7 1z"/>
<path style="fill:#aba750; stroke:none;" d="M25.3333 1.66667L25.6667 2.33333L25.3333 1.66667z"/>
<path style="fill:#0a5caa; stroke:none;" d="M0 2L4 5L4 4L0 2z"/>
<path style="fill:#aba750; stroke:none;" d="M1.66667 2.33333L2.33333 2.66667L1.66667 2.33333M8 2L9 3L8 2z"/>
<path style="fill:#5d7356; stroke:none;" d="M23 2L24 3L23 2z"/>
<path style="fill:#e0ccd5; stroke:none;" d="M24 2L25 3L24 2z"/>
<path style="fill:#5d7356; stroke:none;" d="M31 2L32 3L31 2M2 3L3 4L2 3z"/>
<path style="fill:#e0ccd5; stroke:none;" d="M3 3L4 4L3 3z"/>
<path style="fill:#5d7356; stroke:none;" d="M10 3L11 4L10 3z"/>
<path style="fill:#aba750; stroke:none;" d="M22 3L23 4L22 3z"/>
<path style="fill:#e0ccd5; stroke:none;" d="M23 3L24 4L23 3z"/>
<path style="fill:#aba750; stroke:none;" d="M4 4L4 6L6 4L4 4M11.6667 4.33333L12.3333 4.66667L11.6667 4.33333z"/>
<path style="fill:#5d7356; stroke:none;" d="M20 4L21 5L20 4M28 4L33 6L33 5L28 4M0 5L0 6L4 6L0 5z"/>
<path style="fill:#aba750; stroke:none;" d="M8 5L9 6L8 5M27 5L28 6L27 5M13 6L14 7L13 6z"/>
<path style="fill:#5d7356; stroke:none;" d="M33 6L33 13L34 13L33 6M44 11C44 16.0171 42.0372 24.4741 44.2184 28.956C47.4548 35.6064 57.6009 35.2769 60.9722 28.956C63.4931 24.2297 62 16.2299 62 11L44 11z"/>
<path style="fill:#e0ccd5; stroke:none;" d="M0 12L0 13L5 13L5 14L0 19C4.69053 16.3897 11.6087 10.5076 13 19L14 19L14 12L0 12M19 12L19 19L20 19L20 14L32 20L32 16L31 16L32 18L31 18L24 14L24 13L33 13L19 12z"/>
<path style="fill:#0a5caa; stroke:none;" d="M52 12L54 15L54 12L52 12M0 16L4 14C1.58779 12.6452 0.567617 13.3511 0 16z"/>
<path style="fill:#5d7356; stroke:none;" d="M4 13L5 14L4 13z"/>
<path style="fill:#aba750; stroke:none;" d="M8 13L9 14L8 13z"/>
<path style="fill:#db3f3d; stroke:none;" d="M0 20L11 14C6.56008 13.2744 2.69656 16.7457 0 20M24 13L24 14L32 18L32 17L24 13z"/>
<path style="fill:#aba750; stroke:none;" d="M27 13L28 14L27 13M3 14L4 15L3 14z"/>
<path style="fill:#e0ccd5; stroke:none;" d="M9 14L8 16L9 14z"/>
<path style="fill:#aba750; stroke:none;" d="M10 14L11 15L10 14z"/>
<path style="fill:#5d7356; stroke:none;" d="M12 14L12 20L13 20L12 14M21 14L22 15L21 14z"/>
<path style="fill:#aba750; stroke:none;" d="M25 14L26 15L25 14z"/>
<path style="fill:#e0ccd5; stroke:none;" d="M28 14L30 16L28 14z"/>
<path style="fill:#5d7356; stroke:none;" d="M29 14L30 15L29 14z"/>
<path style="fill:#0a5caa; stroke:none;" d="M49.6667 14.3333L50.3333 14.6667L49.6667 14.3333M55.6667 14.3333L56.3333 14.6667L55.6667 14.3333z"/>
<path style="fill:#5d7356; stroke:none;" d="M1 15L2 16L1 15M9 15L10 16L9 15z"/>
<path style="fill:#aba750; stroke:none;" d="M30 15L31 16L30 15M51 15L51 18L52 18L51 15M54 15L53 29L50 28L57 32L54 15M0 16L1 17L0 16z"/>
<path style="fill:#e0ccd5; stroke:none;" d="M6 16L5 18L6 16z"/>
<path style="fill:#aba750; stroke:none;" d="M7 16L8 17L7 16z"/>
<path style="fill:#5d7356; stroke:none;" d="M24 16L25 17L24 16z"/>
<path style="fill:#aba750; stroke:none;" d="M28 16L29 17L28 16z"/>
<path style="fill:#5d7356; stroke:none;" d="M32 16L33 17L32 16z"/>
<path style="fill:#aba750; stroke:none;" d="M4.33333 17.6667L4.66667 18.3333L4.33333 17.6667z"/>
<path style="fill:#5d7356; stroke:none;" d="M6 17L7 18L6 17z"/>
<path style="fill:#aba750; stroke:none;" d="M26 17L27 18L26 17z"/>
<path style="fill:#5d7356; stroke:none;" d="M33 17L33 20L34 20L33 17z"/>
<path style="fill:#e0ccd5; stroke:none;" d="M3 18L4 19L3 18z"/>
<path style="fill:#5d7356; stroke:none;" d="M27 18L28 19L27 18z"/>
<path style="fill:#db3f3d; stroke:none;" d="M32 18L33 19L32 18z"/>
<path style="fill:#0a5caa; stroke:none;" d="M52.3333 18.6667L52.6667 19.3333L52.3333 18.6667z"/>
<path style="fill:#aba750; stroke:none;" d="M2 19L3 20L2 19z"/>
<path style="fill:#5d7356; stroke:none;" d="M3 19L4 20L3 19z"/>
<path style="fill:#aba750; stroke:none;" d="M13 19L14 20L13 19M19 19L20 20L19 19M29 19L30 20L29 19M32 19L33 20L32 19M51 21L50 24L51 21M48 24L49 28L50 28L50 24L48 24z"/>
</svg>
