<?xml version="1.0" standalone="yes"?>
<svg xmlns="http://www.w3.org/2000/svg" width="70" height="42">
<path style="fill:#05a64f; stroke:none;" d="M0 0L0 30L48 1C35.5857 -4.20927 13.5264 0 0 0z"/>
<path style="fill:#e3d808; stroke:none;" d="M0 32L51 1C46.1377 -0.32946 40.9788 4.17486 37 6.68133C26.7148 13.1605 5.63872 21.1203 0 32z"/>
<path style="fill:#282422; stroke:none;" d="M0 42C21.2357 42 34.3515 31.442 52 20.3187C61.1731 14.5371 69.9908 11.8523 70 0C64.3119 0 57.515 -1.0125 52 0.499229C40.6975 3.5974 28.8879 14.0866 19 20.3187C9.04464 26.5933 0.00140925 29.2336 0 42z"/>
<path style="fill:#05a64f; stroke:none;" d="M49 1L50 2L49 1M41 6L42 7L41 6z"/>
<path style="fill:#dddddd; stroke:none;" d="M46 7L43 13L43 14L48 14L49 18L56 15L56 14L54 7L46 7z"/>
<path style="fill:#05a64f; stroke:none;" d="M52 7L53 8L52 7M46 9L47 10L46 9z"/>
<path style="fill:#e3d808; stroke:none;" d="M69 9L18 41L18 42C31.6637 39.5342 46.3102 26.3676 58 19.0502C61.4194 16.9097 70.0999 13.7999 69 9z"/>
<path style="fill:#05a64f; stroke:none;" d="M33 11L34 12L33 11M44 12L45 13L44 12M53 12L54 13L53 12z"/>
<path style="fill:#ea2124; stroke:none;" d="M21 41L21 42L70 42L70 12L21 41z"/>
<path style="fill:#05a64f; stroke:none;" d="M62 13L63 14L62 13M47 14L48 15L47 14M25 16L26 17L25 16M50 16L51 17L50 16M48 17L49 18L48 17M49 18L50 19L49 18M54 18L55 19L54 18M17 21L18 22L17 21M46 23L47 24L46 23z"/>
<path style="fill:#dddddd; stroke:none;" d="M18 24L19 29L16 30L21 36L22 36L28 32L28 31L26 25L18 24z"/>
<path style="fill:#05a64f; stroke:none;" d="M19 24L20 25L19 24M25 24L26 25L25 24M20 25L21 26L20 25M9 26L10 27L9 26M25 26L26 27L25 26M38 28L39 29L38 28M15 30L16 31L15 30M26 30L27 31L26 30M1 31L2 32L1 31M16 31L16 32L19 32L16 31M20 33L21 34L20 33M30 33L31 34L30 33M22 38L23 39L22 38z"/>
</svg>
